<svg id="visual" viewBox="0 0 900 600" width="900" height="600" xmlns="http://www.w3.org/2000/svg" xmlns:xlink="http://www.w3.org/1999/xlink" version="1.1"><path d="M0 55L15 53C30 51 60 47 90 45C120 43 150 43 180 39C210 35 240 27 270 29C300 31 330 43 360 47C390 51 420 47 450 41C480 35 510 27 540 26C570 25 600 31 630 35C660 39 690 41 720 40C750 39 780 35 810 37C840 39 870 47 885 51L900 55L900 0L885 0C870 0 840 0 810 0C780 0 750 0 720 0C690 0 660 0 630 0C600 0 570 0 540 0C510 0 480 0 450 0C420 0 390 0 360 0C330 0 300 0 270 0C240 0 210 0 180 0C150 0 120 0 90 0C60 0 30 0 15 0L0 0Z" fill="#7781cd"></path><path d="M0 223L15 210C30 197 60 171 90 165C120 159 150 173 180 190C210 207 240 227 270 237C300 247 330 247 360 244C390 241 420 235 450 228C480 221 510 213 540 206C570 199 600 193 630 189C660 185 690 183 720 173C750 163 780 145 810 150C840 155 870 183 885 197L900 211L900 53L885 49C870 45 840 37 810 35C780 33 750 37 720 38C690 39 660 37 630 33C600 29 570 23 540 24C510 25 480 33 450 39C420 45 390 49 360 45C330 41 300 29 270 27C240 25 210 33 180 37C150 41 120 41 90 43C60 45 30 49 15 51L0 53Z" fill="#6873c6"></path><path d="M0 319L15 320C30 321 60 323 90 317C120 311 150 297 180 296C210 295 240 307 270 318C300 329 330 339 360 342C390 345 420 341 450 328C480 315 510 293 540 283C570 273 600 275 630 293C660 311 690 345 720 346C750 347 780 315 810 309C840 303 870 323 885 333L900 343L900 209L885 195C870 181 840 153 810 148C780 143 750 161 720 171C690 181 660 183 630 187C600 191 570 197 540 204C510 211 480 219 450 226C420 233 390 239 360 242C330 245 300 245 270 235C240 225 210 205 180 188C150 171 120 157 90 163C60 169 30 195 15 208L0 221Z" fill="#5865c0"></path><path d="M0 451L15 440C30 429 60 407 90 396C120 385 150 385 180 392C210 399 240 413 270 416C300 419 330 411 360 414C390 417 420 431 450 423C480 415 510 385 540 377C570 369 600 383 630 395C660 407 690 417 720 419C750 421 780 415 810 411C840 407 870 405 885 404L900 403L900 341L885 331C870 321 840 301 810 307C780 313 750 345 720 344C690 343 660 309 630 291C600 273 570 271 540 281C510 291 480 313 450 326C420 339 390 343 360 340C330 337 300 327 270 316C240 305 210 293 180 294C150 295 120 309 90 315C60 321 30 319 15 318L0 317Z" fill="#4858b9"></path><path d="M0 481L15 477C30 473 60 465 90 462C120 459 150 461 180 462C210 463 240 463 270 465C300 467 330 471 360 474C390 477 420 479 450 469C480 459 510 437 540 431C570 425 600 435 630 445C660 455 690 465 720 471C750 477 780 479 810 483C840 487 870 493 885 496L900 499L900 401L885 402C870 403 840 405 810 409C780 413 750 419 720 417C690 415 660 405 630 393C600 381 570 367 540 375C510 383 480 413 450 421C420 429 390 415 360 412C330 409 300 417 270 414C240 411 210 397 180 390C150 383 120 383 90 394C60 405 30 427 15 438L0 449Z" fill="#3c4eae"></path><path d="M0 505L15 500C30 495 60 485 90 486C120 487 150 499 180 508C210 517 240 523 270 525C300 527 330 525 360 523C390 521 420 519 450 511C480 503 510 489 540 486C570 483 600 491 630 497C660 503 690 507 720 513C750 519 780 527 810 528C840 529 870 523 885 520L900 517L900 497L885 494C870 491 840 485 810 481C780 477 750 475 720 469C690 463 660 453 630 443C600 433 570 423 540 429C510 435 480 457 450 467C420 477 390 475 360 472C330 469 300 465 270 463C240 461 210 461 180 460C150 459 120 457 90 460C60 463 30 471 15 475L0 479Z" fill="#3748a0"></path><path d="M0 559L15 557C30 555 60 551 90 554C120 557 150 567 180 568C210 569 240 561 270 560C300 559 330 565 360 565C390 565 420 559 450 553C480 547 510 541 540 540C570 539 600 543 630 548C660 553 690 559 720 563C750 567 780 569 810 565C840 561 870 551 885 546L900 541L900 515L885 518C870 521 840 527 810 526C780 525 750 517 720 511C690 505 660 501 630 495C600 489 570 481 540 484C510 487 480 501 450 509C420 517 390 519 360 521C330 523 300 525 270 523C240 521 210 515 180 506C150 497 120 485 90 484C60 483 30 493 15 498L0 503Z" fill="#324292"></path><path d="M0 601L15 601C30 601 60 601 90 601C120 601 150 601 180 601C210 601 240 601 270 601C300 601 330 601 360 601C390 601 420 601 450 601C480 601 510 601 540 601C570 601 600 601 630 601C660 601 690 601 720 601C750 601 780 601 810 601C840 601 870 601 885 601L900 601L900 539L885 544C870 549 840 559 810 563C780 567 750 565 720 561C690 557 660 551 630 546C600 541 570 537 540 538C510 539 480 545 450 551C420 557 390 563 360 563C330 563 300 557 270 558C240 559 210 567 180 566C150 565 120 555 90 552C60 549 30 553 15 555L0 557Z" fill="#2d3c85"></path></svg>